HIERARCHY
ROOT Hips
{
 OFFSET 0.000000 0.000000 0.000000
 CHANNELS 6 Xposition Yposition Zposition Yrotation Xrotation Zrotation
 JOINT Chest
 {
  OFFSET 0.000000 9.585900 0.002600
  CHANNELS 3 Yrotation Xrotation Zrotation
  JOINT Chest2
  {
   OFFSET 0.000000 9.601200 -0.005300
   CHANNELS 3 Yrotation Xrotation Zrotation
   JOINT Chest3
   {
    OFFSET 0.000000 9.561800 0.000000
    CHANNELS 3 Yrotation Xrotation Zrotation
    JOINT Chest4
    {
     OFFSET 0.000000 9.552100 0.000000
     CHANNELS 3 Yrotation Xrotation Zrotation
     JOINT Neck
     {
      OFFSET 0.000000 14.453000 0.000000
      CHANNELS 3 Yrotation Xrotation Zrotation
      JOINT Head
      {
       OFFSET 0.000000 8.936500 -0.011300
       CHANNELS 3 Yrotation Xrotation Zrotation
       End Site
       {
        OFFSET 0.000000 17.073600 -0.006000
       }
      }
     }
     JOINT RightCollar
     {
      OFFSET -2.921100 9.558500 0.000000
      CHANNELS 3 Yrotation Xrotation Zrotation
      JOINT RightShoulder
      {
       OFFSET -13.519700 0.000000 0.000000
       CHANNELS 3 Yrotation Xrotation Zrotation
       JOINT RightElbow
       {
        OFFSET 0.000000 -29.696600 0.000000
        CHANNELS 3 Yrotation Xrotation Zrotation
        JOINT RightWrist
        {
         OFFSET 0.000000 -24.004700 0.000000
         CHANNELS 3 Yrotation Xrotation Zrotation
         End Site
         {
          OFFSET 0.000000 -17.728500 0.000000
         }
        }
       }
      }
     }
     JOINT LeftCollar
     {
      OFFSET 2.921100 9.558500 0.000000
      CHANNELS 3 Yrotation Xrotation Zrotation
      JOINT LeftShoulder
      {
       OFFSET 13.519700 0.000000 0.000000
       CHANNELS 3 Yrotation Xrotation Zrotation
       JOINT LeftElbow
       {
        OFFSET 0.000000 -29.696600 0.000000
        CHANNELS 3 Yrotation Xrotation Zrotation
        JOINT LeftWrist
        {
         OFFSET 0.000000 -24.004700 0.000000
         CHANNELS 3 Yrotation Xrotation Zrotation
         End Site
         {
          OFFSET 0.000000 -17.728500 0.000000
         }
        }
       }
      }
     }
    }
   }
  }
 }
 JOINT RightHip
 {
  OFFSET -7.771700 -0.012900 -0.001300
  CHANNELS 3 Yrotation Xrotation Zrotation
  JOINT RightKnee
  {
   OFFSET 0.000000 -40.869800 0.001200
   CHANNELS 3 Yrotation Xrotation Zrotation
   JOINT RightAnkle
   {
    OFFSET 0.000000 -39.717900 0.002100
    CHANNELS 3 Yrotation Xrotation Zrotation
    JOINT RightToe
    {
     OFFSET 0.000000 -4.965400 11.033500
     CHANNELS 3 Yrotation Xrotation Zrotation
     End Site
     {
      OFFSET 0.000000 -1.423100 5.872300
     }
    }
   }
  }
 }
 JOINT LeftHip
 {
  OFFSET 7.771700 -0.012900 -0.001300
  CHANNELS 3 Yrotation Xrotation Zrotation
  JOINT LeftKnee
  {
   OFFSET 0.000000 -40.869800 0.001200
   CHANNELS 3 Yrotation Xrotation Zrotation
   JOINT LeftAnkle
   {
    OFFSET 0.000000 -39.717900 0.002100
    CHANNELS 3 Yrotation Xrotation Zrotation
    JOINT LeftToe
    {
     OFFSET 0.000000 -4.965400 11.033500
     CHANNELS 3 Yrotation Xrotation Zrotation
     End Site
     {
      OFFSET 0.000000 -1.423100 5.872300
     }
    }
   }
  }
 }
}
MOTION
Frames: 9
Frame Time: 0.008333
0.000000 85.388000 0.000000 0.000000 -5.767877 0.000000 0.000000 11.653817 0.000000 0.000000 -5.885947 0.000000 0.000000 -0.000000 0.000000 0.000000 -0.000000 0.000000 0.000000 12.528835 0.000000 0.000000 0.711642 0.000000 0.000000 -0.000000 0.000000 0.000000 0.000000 -90.000000 0.000000 -2.309062 0.000000 0.000000 2.309062 0.000000 0.000000 -0.000000 0.000000 0.000000 -0.000000 90.000000 0.000000 -2.309062 0.000000 0.000000 2.309062 0.000000 0.000000 8.520406 0.000000 0.000000 1.905762 0.000000 -0.000000 -4.658285 0.000000 0.000000 -0.000000 0.000000 0.000000 8.520406 0.000000 0.000000 1.905762 0.000000 -0.000000 -4.658285 0.000000 0.000000 -0.000000 0.000000
-40.922054 46.511039 16.265398 175.242516 -31.427203 -3.095519 -0.600889 17.650186 1.708060 -0.091271 1.922501 0.202001 -0.202604 3.180008 0.329452 -0.497063 15.462713 1.570766 -11.534176 19.086773 2.415919 -21.688317 0.856505 7.783503 0.098646 3.388602 -1.464889 -4.823051 -15.293965 -17.311607 -63.617972 -77.615399 94.306112 5.987426 10.814905 -9.247427 -0.759339 0.194780 1.460014 -4.476961 -1.458400 13.082933 75.475800 -77.017567 -113.907982 -5.585029 13.316171 2.051046 -4.605421 -56.206823 -6.155367 -170.362005 84.362265 -161.000191 -5.893998 -8.970679 -8.066163 -0.012946 -0.043203 0.135206 1.725621 -57.893268 11.060228 -111.265698 81.097884 -115.145976 5.400981 -6.820314 7.077756 0.135268 0.225612 0.050713
-40.927467 46.510163 16.269568 175.247665 -31.423081 -3.122900 -0.645199 17.634002 1.704426 -0.094555 1.922770 0.204903 -0.209075 3.181159 0.337995 -0.583753 15.450367 1.604428 -11.564123 19.168552 2.365765 -21.813469 1.003962 7.760767 0.179698 3.413679 -1.513306 -5.700981 -15.874396 -17.406250 -63.053896 -76.469303 93.685742 5.651785 10.353930 -9.397147 -0.707132 0.157626 1.450362 -4.417010 -1.418985 13.038612 75.618230 -77.083427 -114.092745 -5.583496 13.405228 2.053306 -4.549063 -56.210805 -6.130652 -170.067864 84.365395 -160.713265 -5.923134 -8.950994 -8.038944 -0.012868 -0.042832 0.135572 1.696162 -57.907438 11.081537 -111.271690 81.096624 -115.138350 5.419661 -6.806393 7.076111 0.128341 0.218708 0.050020
-40.933856 46.509756 16.272965 175.248087 -31.424404 -3.146040 -0.684853 17.624216 1.704738 -0.138905 1.913444 0.201355 -0.179076 3.191183 0.346589 -0.632200 15.445341 1.629744 -11.607793 19.229724 2.330987 -21.906773 1.117612 7.725969 0.144109 3.408296 -1.527860 -6.483640 -16.434952 -17.541482 -62.563631 -75.376035 93.147450 5.295174 9.851120 -9.568424 -0.678934 0.125417 1.452335 -4.365294 -1.390332 13.001493 75.644140 -77.117599 -114.139065 -5.601984 13.487337 2.067625 -4.492688 -56.210447 -6.102442 -169.738111 84.367209 -160.397028 -5.951069 -8.932171 -8.011353 -0.012386 -0.041835 0.137297 1.666760 -57.912948 11.109664 -111.291868 81.099961 -115.150650 5.414940 -6.799337 7.080278 0.134181 0.216997 0.045354
-40.932619 46.510483 16.275750 175.243487 -31.433545 -3.212512 -0.766712 17.611132 1.719609 -0.106165 1.923280 0.213244 -0.172366 3.194461 0.352311 -0.662613 15.444214 1.646047 -11.649718 19.277738 2.304979 -21.969480 1.207253 7.682100 0.095851 3.390793 -1.545796 -7.217287 -16.968198 -17.676316 -62.141213 -74.359510 92.638307 4.906175 9.294331 -9.780323 -0.661870 0.089803 1.468798 -4.346158 -1.376701 13.019635 75.610222 -77.083921 -114.089256 -5.608477 13.565539 2.111589 -4.501601 -56.190780 -5.984493 -169.281065 84.375965 -159.950585 -5.969946 -8.908716 -7.987602 -0.013419 -0.043478 0.138333 1.561905 -57.909939 11.238169 -111.296284 81.098318 -115.148941 5.417713 -6.805610 7.080096 0.125549 0.226232 0.042058
-40.939073 46.509567 16.279128 175.252461 -31.426221 -3.238232 -0.825354 17.592311 1.707602 -0.081151 1.930258 0.223791 -0.208717 3.187656 0.347805 -0.694601 15.442998 1.657459 -11.677217 19.319754 2.277785 -22.006356 1.283322 7.633209 0.081543 3.376233 -1.575879 -7.902074 -17.473646 -17.806808 -61.830547 -73.443236 92.172460 4.486556 8.696022 -10.055850 -0.636497 0.053143 1.489602 -4.312909 -1.342419 13.037909 75.625118 -77.051424 -114.097456 -5.601694 13.638403 2.181943 -4.472574 -56.199274 -5.948338 -168.926603 84.374348 -159.616588 -5.982470 -8.891234 -7.964284 -0.015391 -0.043118 0.137581 1.532955 -57.924183 11.260132 -111.338747 81.104066 -115.181484 5.397845 -6.822825 7.075842 0.137499 0.248278 0.051531
-40.942074 46.509987 16.279947 175.251446 -31.432071 -3.273927 -0.866278 17.587699 1.710032 -0.060891 1.935721 0.234925 -0.225719 3.184365 0.345020 -0.740365 15.437808 1.660939 -11.672932 19.353580 2.253356 -22.048044 1.359967 7.587192 0.069325 3.354870 -1.607774 -8.500488 -17.937650 -17.946226 -61.701009 -72.652932 91.809952 4.048092 8.092527 -10.427993 -0.613418 0.016095 1.514993 -4.276819 -1.302627 13.060960 75.648419 -76.995763 -114.103542 -5.604777 13.708471 2.260358 -4.501028 -56.190680 -5.863216 -168.649151 84.377378 -159.368140 -5.991852 -8.877458 -7.936616 -0.019372 -0.043530 0.116407 1.483804 -57.925245 11.323873 -111.364925 81.102739 -115.201555 5.386289 -6.816904 7.075784 0.148015 0.246382 0.055254
-40.944128 46.511069 16.278594 175.235989 -31.445447 -3.301545 -0.866375 17.595948 1.729778 -0.138174 1.917949 0.206542 -0.137863 3.204758 0.376245 -0.810701 15.425635 1.652389 -11.620660 19.375271 2.237165 -22.118425 1.444860 7.547493 0.058913 3.326715 -1.640194 -9.018473 -18.356901 -18.094092 -61.780609 -72.014542 91.564909 3.609309 7.517386 -10.901977 -0.564995 0.006619 1.525427 -4.267347 -1.286625 13.095473 75.666414 -76.954258 -114.110642 -5.592932 13.763983 2.356196 -4.454983 -56.180319 -5.804983 -168.136042 84.365962 -158.870454 -6.012099 -8.851342 -7.888656 -0.016056 -0.055758 0.106456 1.440135 -57.916225 11.389846 -111.380868 81.105296 -115.210628 5.396066 -6.787073 7.071493 0.147149 0.219348 0.054268
-40.954324 46.509998 16.277832 175.220390 -31.438855 -3.275217 -0.883486 17.584344 1.693547 -0.155221 1.912584 0.194006 -0.152888 3.203246 0.380932 -0.828201 15.423512 1.646296 -11.637559 19.413789 2.225044 -22.104771 1.503180 7.492509 0.056161 3.298027 -1.671694 -9.459818 -18.735550 -18.251263 -62.075766 -71.533922 91.426644 3.188015 6.993048 -11.444051 -0.523949 -0.003698 1.545263 -4.252113 -1.269217 13.116118 75.704662 -76.937128 -114.141336 -5.553209 13.803593 2.467916 -4.243594 -56.230107 -5.901143 -167.596829 84.304757 -158.333098 -6.023726 -8.769881 -7.822400 -0.031407 -0.121377 0.126629 1.471346 -57.921505 11.366433 -111.369244 81.105717 -115.204796 5.372148 -6.779561 7.063825 0.174997 0.215647 0.065666
